{"title":"Dark.Skies.2013.WEBRip.CamAudio.Xvid.Feel-Free","uid":8339873,"size":945124261,"categoryP":"video","categoryS":"movies","magnet":"?xt=urn:btih:43230ea48cea14d01503d2549796fb116fec874d&amp;dn=Dark.Skies.2013.WEBRip.CamAudio.Xvid.Feel-Free&amp;tr=udp%3A%2F%2Ftracker.openbittorrent.com%3A80&amp;tr=udp%3A%2F%2Fopen.demonii.com%3A1337&amp;tr=udp%3A%2F%2Ftracker.coppersurfer.tk%3A6969&amp;tr=udp%3A%2F%2Fexodus.desync.com%3A6969","seeders":1,"leechers":0,"uploader":"Gh0stNet","files":8,"time":1365072219,"description":"Genre:Horror | Sci-Fi | Thriller\nLanguage:English\nIMDb:http://www.imdb.com/title/tt2387433/\nSource:TommieCook Thanks\nSample:Never\nEncoder:Tony\n\nFormat                                   : AVI\nFormat/Info                              : Audio Video Interleave\nFile size                                : 900 MiB\nDuration                                 : 1h 33mn\nOverall bit rate                         : 1 353 Kbps\n\nVideo\nID                                       : 0\nFormat                                   : MPEG-4 Visual\nFormat profile                           : Advanced Simple@L5\nFormat settings, BVOP                    : 1\nFormat settings, QPel                    : No\nFormat settings, GMC                     : No warppoints\nFormat settings, Matrix                  : Default (H.263)\nCodec ID                                 : XVID\nCodec ID/Hint                            : XviD\nDuration                                 : 1h 33mn\nBit rate                                 : 1 184 Kbps\nWidth                                    : 640 pixels\nHeight                                   : 272 pixels\nDisplay aspect ratio                     : 2.35:1\nFrame rate                               : 25.000 fps\nColor space                              : YUV\nChroma subsampling                       : 4:2:0\nBit depth                                : 8 bits\nScan type                                : Progressive\nCompression mode                         : Lossy\nBits/(Pixel*Frame)                       : 0.272\nStream size                              : 788 MiB (87%)\nWriting library                          : XviD 1.2.1 (UTC 2008-12-04)\n\nAudio\nID                                       : 1\nFormat                                   : AC-3\nFormat/Info                              : Audio Coding 3\nMode extension                           : CM (complete main)\nCodec ID                                 : 2000\nDuration                                 : 1h 33mn\nBit rate mode                            : Constant\nBit rate                                 : 160 Kbps\nChannel(s)                               : 2 channels\nChannel positions                        : Front: L R\nSampling rate                            : 48.0 KHz\nBit depth                                : 16 bits\nCompression mode                         : Lossy\nStream size                              : 106 MiB (12%)\nAlignment                                : Aligned on interleaves\nInterleave, duration                     : 40 ms (1.00 video frame)\nInterleave, preload duration             : 512 ms\n\n \nPlot:\n As the Barret family\\'s peaceful suburban life is rocked by an escalating\nseries of disturbing events, they come to learn that a terrifying and deadly\nforce is after them.\n\nScreens: &lt;a href=&quot;\nhttp://i.imgur.com/lSmcBDb.png&quot; rel=&quot;nofollow&quot; target=&quot;_NEW&quot;&gt;\nhttp://i.imgur.com/lSmcBDb.png&lt;/a&gt; &lt;a href=&quot;\nhttp://i.imgur.com/M1HOgdD.png&quot; rel=&quot;nofollow&quot; target=&quot;_NEW&quot;&gt;\nhttp://i.imgur.com/M1HOgdD.png&lt;/a&gt; &lt;a href=&quot;\nhttp://i.imgur.com/iVQ9K6M.png&quot; rel=&quot;nofollow&quot; target=&quot;_NEW&quot;&gt;\nhttp://i.imgur.com/iVQ9K6M.png&lt;/a&gt; &lt;a href=&quot;\nhttp://i.imgur.com/chhtH2s.png&quot; rel=&quot;nofollow&quot; target=&quot;_NEW&quot;&gt;\nhttp://i.imgur.com/chhtH2s.png&lt;/a&gt;","torrent":{"xt":"urn:btih:43230ea48cea14d01503d2549796fb116fec874d","amp;dn":"Dark.Skies.2013.WEBRip.CamAudio.Xvid.Feel-Free","amp;tr":["udp%3A%2F%2Ftracker.openbittorrent.com%3A80","udp%3A%2F%2Fopen.demonii.com%3A1337","udp%3A%2F%2Ftracker.coppersurfer.tk%3A6969","udp%3A%2F%2Fexodus.desync.com%3A6969"],"infoHash":"43230ea48cea14d01503d2549796fb116fec874d","infoHashBuffer":{"type":"Buffer","data":[67,35,14,164,140,234,20,208,21,3,210,84,151,150,251,17,111,236,135,77]},"announce":[],"urlList":[]}}